<svg xmlns="http://www.w3.org/2000/svg" viewBox="0 0 100 100">
  <defs>
    <filter id="goldGlow" x="-40%" y="-40%" width="180%" height="180%">
      <feGaussianBlur in="SourceGraphic" stdDeviation="0.6" result="blur"/>
      <feColorMatrix in="blur" type="matrix"
        values="1 0 0 0 0.12
                0 0.8 0 0 0.05
                0 0 0.2 0 0
                0 0 0 0.7 0" result="goldBlur"/>
      <feMerge>
        <feMergeNode in="goldBlur"/>
        <feMergeNode in="SourceGraphic"/>
      </feMerge>
    </filter>
    <radialGradient id="bg" cx="50%" cy="45%" r="55%">
      <stop offset="0%" stop-color="#1a1a24"/>
      <stop offset="100%" stop-color="#0D0D12"/>
    </radialGradient>
  </defs>
  <rect width="100" height="100" fill="url(#bg)"/>
  <g transform="translate(50, 48) scale(3.8) translate(-87.24, -54.46)" filter="url(#goldGlow)">
    <path d="M84.9391 56.7644L92.0879 48M82.3946 48L89.5434 56.7644M80.7791 58.5011C80.7791 58.8193 80.8417 59.1344 80.9635 59.4284C81.0853 59.7225 81.2638 59.9896 81.4888 60.2146C81.7139 60.4397 81.981 60.6182 82.275 60.7399C82.569 60.8617 82.8841 60.9244 83.2024 60.9244C83.5206 60.9244 83.8357 60.8617 84.1297 60.7399C84.4238 60.6182 84.6909 60.4397 84.9159 60.2146C85.141 59.9896 85.3195 59.7225 85.4412 59.4284C85.563 59.1344 85.6257 58.8193 85.6257 58.5011C85.6257 58.1828 85.563 57.8677 85.4412 57.5737C85.3195 57.2797 85.141 57.0126 84.9159 56.7875C84.6909 56.5625 84.4238 56.384 84.1297 56.2622C83.8357 56.1404 83.5206 56.0778 83.2024 56.0778C82.8841 56.0778 82.569 56.1404 82.275 56.2622C81.981 56.384 81.7139 56.5625 81.4888 56.7875C81.2638 57.0126 81.0853 57.2797 80.9635 57.5737C80.8417 57.8677 80.7791 58.1828 80.7791 58.5011ZM88.8568 58.5011C88.8568 59.1438 89.1121 59.7602 89.5666 60.2146C90.0211 60.6691 90.6374 60.9244 91.2801 60.9244C91.9228 60.9244 92.5392 60.6691 92.9937 60.2146C93.4482 59.7602 93.7035 59.1438 93.7035 58.5011C93.7035 57.8584 93.4482 57.242 92.9937 56.7875C92.5392 56.3331 91.9228 56.0778 91.2801 56.0778C90.6374 56.0778 90.0211 56.3331 89.5666 56.7875C89.1121 57.242 88.8568 57.8584 88.8568 58.5011Z" stroke="#FEBA43" stroke-width="0.9" stroke-linecap="round" stroke-linejoin="round" fill="none"/>
  </g>
  <g transform="translate(50, 48) scale(3.8) translate(-87.24, -54.46)">
    <path d="M84.9391 56.7644L92.0879 48M82.3946 48L89.5434 56.7644M80.7791 58.5011C80.7791 58.8193 80.8417 59.1344 80.9635 59.4284C81.0853 59.7225 81.2638 59.9896 81.4888 60.2146C81.7139 60.4397 81.981 60.6182 82.275 60.7399C82.569 60.8617 82.8841 60.9244 83.2024 60.9244C83.5206 60.9244 83.8357 60.8617 84.1297 60.7399C84.4238 60.6182 84.6909 60.4397 84.9159 60.2146C85.141 59.9896 85.3195 59.7225 85.4412 59.4284C85.563 59.1344 85.6257 58.8193 85.6257 58.5011C85.6257 58.1828 85.563 57.8677 85.4412 57.5737C85.3195 57.2797 85.141 57.0126 84.9159 56.7875C84.6909 56.5625 84.4238 56.384 84.1297 56.2622C83.8357 56.1404 83.5206 56.0778 83.2024 56.0778C82.8841 56.0778 82.569 56.1404 82.275 56.2622C81.981 56.384 81.7139 56.5625 81.4888 56.7875C81.2638 57.0126 81.0853 57.2797 80.9635 57.5737C80.8417 57.8677 80.7791 58.1828 80.7791 58.5011ZM88.8568 58.5011C88.8568 59.1438 89.1121 59.7602 89.5666 60.2146C90.0211 60.6691 90.6374 60.9244 91.2801 60.9244C91.9228 60.9244 92.5392 60.6691 92.9937 60.2146C93.4482 59.7602 93.7035 59.1438 93.7035 58.5011C93.7035 57.8584 93.4482 57.242 92.9937 56.7875C92.5392 56.3331 91.9228 56.0778 91.2801 56.0778C90.6374 56.0778 90.0211 56.3331 89.5666 56.7875C89.1121 57.242 88.8568 57.8584 88.8568 58.5011Z" stroke="white" stroke-width="0.45" stroke-linecap="round" stroke-linejoin="round" fill="none"/>
  </g>
</svg>
