<svg xmlns="http://www.w3.org/2000/svg" viewBox="0 0 360 100" fill="none">
  <defs>
    <filter id="rlFieldGlow" x="-40%" y="-40%" width="180%" height="180%">
      <feGaussianBlur in="SourceGraphic" stdDeviation="0.55" result="blur"/>
      <feColorMatrix in="blur" type="matrix"
        values="0.2 0 0 0 0
                0 1 0 0 0.08
                0 0 0.35 0 0
                0 0 0 0.55 0" result="glow"/>
      <feMerge>
        <feMergeNode in="glow"/>
        <feMergeNode in="SourceGraphic"/>
      </feMerge>
    </filter>
    <radialGradient id="rlBg" cx="50%" cy="42%" r="58%">
      <stop offset="0%" stop-color="#122018"/>
      <stop offset="100%" stop-color="#050a08"/>
    </radialGradient>
    <linearGradient id="rlText" x1="0%" y1="0%" x2="100%" y2="0%">
      <stop offset="0%" stop-color="#FFFFFF"/>
      <stop offset="100%" stop-color="#d1fae5"/>
    </linearGradient>
    <linearGradient id="rlAccent" x1="0%" y1="0%" x2="100%" y2="0%">
      <stop offset="0%" stop-color="#4ade80"/>
      <stop offset="100%" stop-color="#16a34a"/>
    </linearGradient>
  </defs>
  <rect width="360" height="100" fill="#050a08"/>
  <g transform="translate(50, 50) scale(0.88) translate(-50, -50)">
    <rect width="100" height="100" fill="url(#rlBg)"/>
    <g filter="url(#rlFieldGlow)">
      <circle cx="50" cy="50" r="33.5" stroke="#4ade80" stroke-width="1.15"/>
      <path
        d="M50 36.2 L61.35 44.5 L57.05 58.1 L42.95 58.1 L38.65 44.5 Z"
        stroke="#4ade80"
        stroke-width="1.05"
        stroke-linejoin="round"
      />
      <path
        d="M22 72 Q34 58 50 54 Q66 50 78 62"
        stroke="#22c55e"
        stroke-width="1.35"
        stroke-linecap="round"
        opacity="0.9"
      />
    </g>
    <g>
      <circle cx="50" cy="50" r="33.5" stroke="#ecfdf5" stroke-width="0.5" opacity="0.88"/>
      <path
        d="M50 36.2 L61.35 44.5 L57.05 58.1 L42.95 58.1 L38.65 44.5 Z"
        stroke="#ecfdf5"
        stroke-width="0.48"
        stroke-linejoin="round"
        opacity="0.85"
      />
      <path
        d="M22 72 Q34 58 50 54 Q66 50 78 62"
        stroke="#ecfdf5"
        stroke-width="0.55"
        stroke-linecap="round"
        opacity="0.3"
      />
    </g>
  </g>
  <text
    x="118"
    y="58"
    fill="url(#rlText)"
    font-family="system-ui, -apple-system, 'Segoe UI', sans-serif"
    font-size="34"
    font-weight="800"
    letter-spacing="0.18em"
  >
    RACHÃO
  </text>
  <rect x="118" y="68" width="132" height="3" rx="1.5" fill="url(#rlAccent)" opacity="0.95"/>
</svg>
